<svg id="SvgjsSvg1001" width="288" height="288" xmlns="http://www.w3.org/2000/svg" version="1.1" xmlns:xlink="http://www.w3.org/1999/xlink" xmlns:svgjs="http://svgjs.com/svgjs"><defs id="SvgjsDefs1002"></defs><g id="SvgjsG1008"><svg xmlns="http://www.w3.org/2000/svg" enable-background="new 0 0 64 64" viewBox="0 0 64 64" width="288" height="288"><path d="M58,28h-7V7c0-2.757-2.243-5-5-5H18c-2.757,0-5,2.243-5,5v10.111C11.728,15.81,9.958,15,8,15H7c-0.553,0-1,0.447-1,1v12H2v2	h5c0.553,0,1-0.447,1-1V17c2.757,0,5,2.243,5,5v7v23H2v2h11v3c0,2.757,2.243,5,5,5h28c2.757,0,5-2.243,5-5v-3.556
	c1.19-0.694,2-1.97,2-3.444c0-1.201-0.542-2.266-1.382-3C52.458,46.266,53,45.201,53,44s-0.542-2.266-1.382-3
	C52.458,40.266,53,39.201,53,38c0-0.732-0.212-1.409-0.556-2H58c2.206,0,4-1.794,4-4S60.206,28,58,28z M18,4h28c1.654,0,3,1.346,3,3
	v3H15V7C15,5.346,16.346,4,18,4z M15,22V12h34v22h-3.169c0.1-0.675,0.169-1.345,0.169-2c0-7.72-6.28-14-14-14s-14,6.28-14,14
	s6.28,14,14,14c2.481,0,4.897-0.669,7.01-1.897c0.03,1.158,0.556,2.185,1.372,2.897C39.542,47.734,39,48.799,39,50
	c0,0.732,0.212,1.409,0.556,2H15V29V22z M39,38c0,0.271,0.028,0.536,0.08,0.794c0.021,0.105,0.063,0.202,0.092,0.305
	c0.042,0.147,0.077,0.297,0.136,0.437c0.063,0.152,0.149,0.29,0.23,0.432c0.045,0.078,0.079,0.163,0.129,0.238
	c0.14,0.211,0.3,0.407,0.477,0.588C37.933,42.843,35.021,44,32,44c-6.617,0-12-5.383-12-12s5.383-12,12-12s12,5.383,12,12
	c0,0.651-0.06,1.321-0.177,2H43C40.794,34,39,35.794,39,38z M49,57c0,1.654-1.346,3-3,3H18c-1.654,0-3-1.346-3-3v-3h28h6V57z M51,50
	c0,1.103-0.897,2-2,2h-6c-1.103,0-2-0.897-2-2s0.897-2,2-2h6C50.103,48,51,48.897,51,50z M51,44c0,1.103-0.897,2-2,2h-6
	c-1.103,0-2-0.897-2-2s0.897-2,2-2h6C50.103,42,51,42.897,51,44z M43,40c-0.314,0-0.608-0.079-0.873-0.209
	c-0.006-0.003-0.009-0.01-0.015-0.013c-0.339-0.169-0.613-0.422-0.805-0.724c-0.009-0.014-0.015-0.029-0.024-0.044
	c-0.075-0.125-0.133-0.26-0.178-0.399c-0.012-0.038-0.026-0.076-0.036-0.115C41.028,38.336,41,38.171,41,38c0-1.103,0.897-2,2-2
	h1.639H49c1.103,0,2,0.897,2,2s-0.897,2-2,2H43z M58,34h-7v-4h7c1.103,0,2,0.897,2,2S59.103,34,58,34z" fill="#d33131" class="color000 svgShape"></path><rect width="2" height="2" x="17" y="48" fill="#d33131" class="color000 svgShape"></rect><rect width="14" height="2" x="33" y="14" fill="#d33131" class="color000 svgShape"></rect><rect width="2" height="2" x="21" y="14" fill="#d33131" class="color000 svgShape"></rect><rect width="2" height="2" x="25" y="14" fill="#d33131" class="color000 svgShape"></rect><rect width="2" height="2" x="29" y="14" fill="#d33131" class="color000 svgShape"></rect><path d="M33,24.051V22h-2v2.051c-2.244,0.252-4,2.139-4,4.449c0,2.481,2.019,4.5,4.5,4.5h1c1.379,0,2.5,1.121,2.5,2.5
	S33.879,38,32.5,38h-1c-1.379,0-2.5-1.121-2.5-2.5V35h-2v0.5c0,2.31,1.756,4.197,4,4.449V42h2v-2.051c2.244-0.252,4-2.139,4-4.449
	c0-2.481-2.019-4.5-4.5-4.5h-1c-1.379,0-2.5-1.121-2.5-2.5s1.121-2.5,2.5-2.5h1c1.379,0,2.5,1.121,2.5,2.5V29h2v-0.5
	C37,26.19,35.244,24.303,33,24.051z" fill="#d33131" class="color000 svgShape"></path><rect width="2" height="2" x="22" y="31" fill="#d33131" class="color000 svgShape"></rect><rect width="2" height="2" x="40" y="31" fill="#d33131" class="color000 svgShape"></rect></svg></g></svg>